<svg 
 xmlns="http://www.w3.org/2000/svg"
 xmlns:xlink="http://www.w3.org/1999/xlink"
 width="30px" height="30px">
<path fill-rule="evenodd"  fill="rgb(48, 48, 48)"
 d="M30.000,29.000 C30.000,29.552 29.553,29.999 29.000,29.999 C28.447,29.999 28.000,29.552 28.000,29.000 C28.000,21.831 22.168,15.999 15.000,15.999 C7.832,15.999 2.000,21.831 2.000,29.000 C2.000,29.552 1.553,29.999 1.000,29.999 C0.447,29.999 -0.000,29.552 -0.000,29.000 C-0.000,22.264 4.462,16.554 10.585,14.664 C8.427,13.230 7.000,10.779 7.000,7.999 C7.000,3.588 10.589,-0.001 15.000,-0.001 C19.411,-0.001 23.000,3.588 23.000,7.999 C23.000,10.779 21.573,13.230 19.415,14.664 C25.538,16.554 30.000,22.264 30.000,29.000 ZM21.000,7.999 C21.000,4.691 18.309,1.999 15.000,1.999 C11.691,1.999 9.000,4.691 9.000,7.999 C9.000,11.308 11.691,13.999 15.000,13.999 C18.309,13.999 21.000,11.308 21.000,7.999 Z"/>
</svg>