<svg 
 xmlns="http://www.w3.org/2000/svg"
 xmlns:xlink="http://www.w3.org/1999/xlink"
 width="30px" height="22px">
<path fill-rule="evenodd"  fill="rgb(48, 48, 48)"
 d="M29.000,11.999 L1.000,11.999 C0.448,11.999 -0.000,11.552 -0.000,10.999 C-0.000,10.447 0.448,9.999 1.000,9.999 L29.000,9.999 C29.552,9.999 30.000,10.447 30.000,10.999 C30.000,11.552 29.552,11.999 29.000,11.999 ZM29.000,1.999 L1.000,1.999 C0.448,1.999 -0.000,1.552 -0.000,0.999 C-0.000,0.447 0.448,-0.001 1.000,-0.001 L29.000,-0.001 C29.552,-0.001 30.000,0.447 30.000,0.999 C30.000,1.552 29.552,1.999 29.000,1.999 ZM1.000,19.999 L29.000,19.999 C29.552,19.999 30.000,20.447 30.000,20.999 C30.000,21.552 29.552,21.999 29.000,21.999 L1.000,21.999 C0.448,21.999 -0.000,21.552 -0.000,20.999 C-0.000,20.447 0.448,19.999 1.000,19.999 Z"/>
</svg>